<svg width="69" height="100" viewBox="0 0 69 100" fill="none" xmlns="http://www.w3.org/2000/svg">
<path d="M18.0851 0C8.18543 0 0 8.18544 0 18.0851C0 25.0697 4.1842 31.0373 10.0607 34.0426C4.1842 37.0478 0 43.0154 0 50C0 56.9846 4.1842 62.9522 10.0607 65.9574C4.1842 68.9627 0 74.9303 0 81.9149C0 91.8146 8.18543 100 18.0851 100C27.9848 100 36.1702 91.8146 36.1702 81.9149V65.9574V58.8805C39.0158 64.2888 44.5087 68.0851 51.0638 68.0851C60.4892 68.0851 68.0851 60.4892 68.0851 51.0638C68.0851 43.3103 62.8426 37.0574 55.7721 34.99C62.8526 32.5298 68.0851 25.9447 68.0851 18.0851C68.0851 8.18544 59.8997 0 50 0H34.0426H18.0851ZM18.0851 4.25532H31.9149V31.9149H18.0851C10.538 31.9149 4.25532 25.6322 4.25532 18.0851C4.25532 10.538 10.538 4.25532 18.0851 4.25532ZM36.1702 4.25532H50C57.5471 4.25532 63.8298 10.538 63.8298 18.0851C63.8298 25.6322 57.5471 31.9149 50 31.9149H36.1702V4.25532ZM18.0851 36.1702H31.9149V63.8298H18.0851C10.538 63.8298 4.25532 57.5471 4.25532 50C4.25532 42.4529 10.538 36.1702 18.0851 36.1702ZM36.1702 36.1702H43.2472C40.207 37.7698 37.7698 40.207 36.1702 43.2472V36.1702ZM51.0638 38.2979C58.2342 38.2979 63.8298 43.8934 63.8298 51.0638C63.8298 58.2342 58.2342 63.8298 51.0638 63.8298C43.8934 63.8298 38.2979 58.2342 38.2979 51.0638C38.2979 43.8934 43.8934 38.2979 51.0638 38.2979ZM18.0851 68.0851H31.9149V81.9149C31.9149 89.462 25.6322 95.7447 18.0851 95.7447C10.538 95.7447 4.25532 89.462 4.25532 81.9149C4.25532 74.3678 10.538 68.0851 18.0851 68.0851Z" fill="black"/>
</svg>
